PathFileType  4	(X/Y/Z) C:\Users\antoi\Documents\MyRepositories\mobilecap\ResultsAnalysis
DataRate	CameraRate	NumFrames	NumMarkers	Units	OrigDataRate	OrigDataStartFrame	OrigNumFrames
100.0	100.0	5	51	mm	100.0	1	1137
Frame#	Time	r_knee			r_shank_antsup			r_ankle			r_calc			r_5meta			r_toe			L_knee			L_shank_antsup			L_ankle			L_calc			L_5meta			L_toe			r_sh2			r_sh3			r_sh4			L_sh2			L_sh3			r_thigh1			r_thigh2			r_thigh3			r_thigh4			r_thigh5			L_thigh1			L_thigh2			L_thigh3			L_thigh4			r.ASIS			r.PSIS			L.ASIS			L.PSIS			C7			R_Shoulder			L_Shoulder			R_Sternum			L_Sternum			R_humerus			R_elbow_med			R_elbow_lat			R_forearm			R_wrist_radius			R_wrist_ulna			L_humerus			L_elbow_med			L_elbow_lat			L_forearm			L_wrist_radius			L_wrist_ulna			R_HJC			L_HJC			R_HJC_reg			L_HJC_reg			
		X1	Y1	Z1	X2	Y2	Z2	X3	Y3	Z3	X4	Y4	Z4	X5	Y5	Z5	X6	Y6	Z6	X7	Y7	Z7	X8	Y8	Z8	X9	Y9	Z9	X10	Y10	Z10	X11	Y11	Z11	X12	Y12	Z12	X13	Y13	Z13	X14	Y14	Z14	X15	Y15	Z15	X16	Y16	Z16	X17	Y17	Z17	X18	Y18	Z18	X19	Y19	Z19	X20	Y20	Z20	X21	Y21	Z21	X22	Y22	Z22	X23	Y23	Z23	X24	Y24	Z24	X25	Y25	Z25	X26	Y26	Z26	X27	Y27	Z27	X28	Y28	Z28	X29	Y29	Z29	X30	Y30	Z30	X31	Y31	Z31	X32	Y32	Z32	X33	Y33	Z33	X34	Y34	Z34	X35	Y35	Z35	X36	Y36	Z36	X37	Y37	Z37	X38	Y38	Z38	X39	Y39	Z39	X40	Y40	Z40	X41	Y41	Z41	X42	Y42	Z42	X43	Y43	Z43	X44	Y44	Z44	X45	Y45	Z45	X46	Y46	Z46	X47	Y47	Z47	X48	Y48	Z48	X49	Y49	Z49	X50	Y50	Z50	X51	Y51	Z51	

1	0.00000000	-223.02101	452.09301	-373.83322	-173.46401	350.90245	-381.14986	-294.93524	93.89287	-393.59179	-341.24382	51.84978	-443.16857	-188.53636	42.31077	-345.30755	-149.12345	59.61139	-385.05058	-211.64634	450.64179	-806.97303	-157.44224	348.17888	-765.59470	-300.37967	93.29861	-794.81220	-351.53478	51.85041	-743.69300	-186.11073	36.75298	-816.20447	-146.77724	57.19813	-764.41620	-201.85950	242.16805	-388.91440	-235.50849	362.16439	-339.33329	-275.42267	257.71224	-356.01069	-209.44091	382.71305	-830.43279	-244.80218	266.20818	-842.50022	-505.65875	559.45854	-428.66548	-401.17846	559.89725	-411.44673	-382.36754	516.08691	-360.54965	-516.71943	462.11136	-373.03224	-401.43148	461.92158	-357.91193	-488.94468	542.41189	-787.82869	-355.70048	546.68154	-790.79016	-501.74427	437.56320	-825.52528	-360.11194	442.27402	-825.91460	-517.80305	589.09871	-480.31791	-705.78892	586.73986	-554.87506	-514.01912	579.85313	-727.50754	-707.53349	583.36730	-665.84856	-615.41767	1052.30226	-607.73785	-566.83913	1020.13615	-455.06890	-549.65686	1024.76977	-761.35995	-498.40715	988.51974	-586.04067	-495.53394	984.76932	-626.81963	-573.08993	899.24116	-381.21428	-688.32105	712.30844	-411.10868	-646.93253	729.65839	-339.16660	-534.20144	747.07678	-382.24279	-454.06722	774.32565	-439.67226	-439.83682	742.04617	-425.84569	-553.70240	877.67059	-830.34305	-653.43841	702.37423	-791.16480	-628.75362	706.31392	-867.31425	-526.97045	718.05985	-834.47828	-428.44857	752.66808	-761.20112	-418.07936	721.59792	-766.66544	-589.95903	498.21330	-505.37417	-581.84771	488.99533	-694.35348	-570.17088	502.09798	-511.56499	-572.73620	497.13874	-674.74783	
2	0.01000000	-222.99644	452.16592	-373.98601	-173.42890	351.02423	-381.28931	-294.97119	93.97300	-393.57289	-341.29547	51.92899	-443.24398	-188.51344	42.40781	-345.40220	-149.08757	59.76840	-384.99470	-211.70687	450.67514	-806.88094	-157.48509	348.23275	-765.55703	-300.34049	93.22970	-794.62322	-350.63368	52.17627	-744.33328	-186.07614	36.82928	-816.16177	-146.76582	57.26463	-764.39759	-201.85559	242.29148	-388.91912	-235.54859	362.32648	-339.36455	-275.43924	257.73447	-355.99556	-209.46007	382.74704	-830.38487	-244.77887	266.39090	-842.46690	-505.64262	559.56221	-428.80938	-401.18017	560.02536	-411.37585	-382.33730	516.15450	-360.67600	-516.69521	462.15596	-373.10036	-401.46929	461.99908	-358.08892	-488.91518	542.52370	-787.84801	-355.72590	546.80962	-790.82773	-501.83229	437.62409	-825.56592	-360.13455	442.33509	-825.85672	-517.87943	589.09436	-480.39785	-705.79780	586.70306	-554.91007	-514.07888	579.92821	-727.52627	-707.54040	583.45168	-665.95987	-615.13731	1052.26251	-607.87009	-566.65035	1020.25561	-455.05471	-549.45668	1024.79538	-761.41700	-498.23395	988.56516	-586.03015	-495.39288	984.79740	-626.74096	-572.98450	899.31351	-381.19700	-688.27808	712.27865	-411.12376	-646.90230	729.78516	-339.17409	-534.13590	747.11864	-382.19593	-454.00040	774.33043	-439.66465	-439.78253	742.03317	-425.78236	-553.65072	877.71514	-830.33003	-653.40435	702.35264	-791.17002	-628.73996	706.36852	-867.31865	-526.93189	718.07819	-834.58588	-428.43133	752.65882	-761.20101	-418.02395	721.64923	-766.83638	-590.00099	498.19828	-505.47254	-581.87048	489.06646	-694.45520	-570.17437	502.01462	-511.72905	-572.73453	497.23784	-674.87523	
3	0.02000000	-222.99988	452.26259	-374.10393	-173.42749	351.14889	-381.35498	-294.96831	94.14868	-393.51823	-341.27521	52.09808	-443.19758	-188.49522	42.51970	-345.46033	-149.06994	59.92177	-384.95665	-211.74906	450.76599	-806.77479	-157.53700	348.31361	-765.51312	-300.33899	93.29526	-794.60568	-349.45774	52.42398	-745.15637	-186.04840	36.91211	-816.13156	-146.75820	57.31029	-764.38692	-201.87392	242.40491	-388.91776	-235.57642	362.44726	-339.40963	-275.45973	257.74360	-356.07341	-209.48464	382.83217	-830.34473	-244.76445	266.45813	-842.37259	-505.65035	559.67338	-428.82050	-401.18257	560.09796	-411.34223	-382.32632	516.23739	-360.76696	-516.68282	462.23670	-373.17184	-401.47451	462.13961	-358.17336	-488.94208	542.60271	-787.83328	-355.75965	546.93630	-790.82393	-501.85587	437.67021	-825.54384	-360.15022	442.44407	-825.81186	-518.00637	589.10945	-480.50762	-705.80171	586.68862	-554.90644	-514.15700	580.02623	-727.45786	-707.54562	583.56750	-666.06715	-614.92558	1052.24368	-607.91359	-566.41712	1020.27333	-455.15404	-549.19544	1024.78079	-761.43777	-498.04426	988.59235	-586.02101	-495.24789	984.83860	-626.63428	-572.85574	899.40697	-381.14230	-688.24582	712.27485	-411.12483	-646.85813	729.94782	-339.17060	-534.02607	747.15088	-382.11005	-453.94131	774.35773	-439.60990	-439.67106	741.95447	-425.84521	-553.51905	877.76478	-830.36057	-653.32756	702.42161	-791.18279	-628.69382	706.49147	-867.33955	-526.88536	718.09702	-834.75299	-428.38696	752.60937	-761.15159	-417.97335	721.67085	-766.91244	-590.06903	498.20510	-505.54562	-581.90473	489.16216	-694.53109	-570.19917	501.97654	-511.91019	-572.75693	497.39885	-674.94303	
4	0.03000000	-223.02699	452.35212	-374.19084	-173.45035	351.24550	-381.38298	-294.96316	94.31624	-393.45622	-341.22402	52.18270	-443.21819	-188.48305	42.60160	-345.47223	-149.07815	60.02107	-384.94551	-211.74641	451.14668	-807.12622	-157.58341	348.40355	-765.45545	-300.35270	93.40172	-794.56689	-348.75035	52.53709	-745.62515	-186.03110	36.96696	-816.10266	-146.75505	57.33856	-764.37790	-201.89211	242.47545	-388.91440	-235.58686	362.53594	-339.46071	-275.44102	257.75657	-356.22145	-209.52822	382.94831	-830.29342	-244.80323	266.49633	-842.24891	-505.66496	559.76036	-428.69764	-401.19006	560.11563	-411.34624	-382.32896	516.30220	-360.85316	-516.64933	462.30183	-373.29902	-401.45352	462.24443	-358.19802	-489.00647	542.64325	-787.79971	-355.78543	547.04722	-790.78900	-501.84828	437.72944	-825.50842	-360.17408	442.57817	-825.78778	-518.07681	589.12962	-480.58865	-705.75711	586.73019	-554.84221	-514.26009	580.16143	-727.33539	-707.55457	583.67706	-666.14919	-614.68141	1052.21477	-607.89550	-566.11902	1020.21561	-455.27349	-548.91298	1024.73856	-761.35849	-497.82316	988.58057	-585.99299	-495.03347	984.84665	-626.52419	-572.69044	899.46035	-381.11846	-688.21347	712.30677	-411.10876	-646.81555	730.05395	-339.15684	-533.89791	747.13736	-382.04812	-453.86355	774.35566	-439.50664	-439.55567	741.82529	-425.94006	-553.29339	877.81731	-830.46955	-653.25028	702.63426	-791.15175	-628.62922	706.64300	-867.37194	-526.83162	718.11890	-834.88236	-428.31191	752.50935	-761.07802	-417.92003	721.65184	-766.92340	-590.10158	498.23361	-505.58110	-581.93778	489.28096	-694.57093	-570.20690	502.04651	-511.98898	-572.83727	497.57836	-674.88619	
5	0.04000000	-223.05694	452.38757	-374.26661	-173.47740	351.26008	-381.45926	-294.97904	94.33108	-393.41130	-341.22319	52.08206	-443.35541	-188.48717	42.59404	-345.44164	-149.10453	60.03138	-384.93801	-211.72210	451.73883	-807.89369	-157.62133	348.47208	-765.39856	-300.35239	93.42593	-794.42374	-348.77126	52.56100	-745.58663	-186.01228	36.98581	-816.05300	-146.74956	57.36359	-764.36795	-201.90510	242.48698	-388.91783	-235.59218	362.56687	-339.55652	-275.42191	257.76091	-356.31295	-209.60475	383.00554	-830.18014	-244.89419	266.61999	-842.20552	-505.68926	559.79598	-428.56493	-401.20864	560.11103	-411.36839	-382.31357	516.31605	-360.95081	-516.61719	462.29819	-373.40357	-401.43685	462.23618	-358.21419	-489.05101	542.66352	-787.76977	-355.81495	547.11146	-790.71435	-501.85863	437.84305	-825.53905	-360.21143	442.69306	-825.76020	-518.12673	589.13106	-480.60375	-705.65895	586.83926	-554.75627	-514.35780	580.29153	-727.25413	-707.58261	583.75112	-666.13019	-614.32528	1052.20400	-607.94856	-565.76086	1020.12439	-455.28328	-548.63553	1024.69373	-761.25787	-497.55796	988.50549	-585.90496	-494.69056	984.76129	-626.46654	-572.48661	899.42095	-381.14660	-688.16932	712.36170	-411.07647	-646.77772	730.03519	-339.12816	-533.80600	747.06599	-382.03984	-453.73256	774.22143	-439.41410	-439.46721	741.66570	-425.96519	-553.03041	877.84300	-830.59708	-653.17107	702.92196	-791.08103	-628.57025	706.73352	-867.39117	-526.75499	718.13544	-834.90203	-428.22038	752.39681	-761.04792	-417.84821	721.55929	-766.88479	-590.11003	498.27210	-505.57493	-581.98817	489.38813	-694.56977	-570.21209	502.20862	-511.90547	-573.02435	497.69389	-674.73145	
